<?xml version="1.0" standalone="no"?>
<!DOCTYPE svg PUBLIC "-//W3C//DTD SVG 20010904//EN"
 "http://www.w3.org/TR/2001/REC-SVG-20010904/DTD/svg10.dtd">
<svg version="1.0" xmlns="http://www.w3.org/2000/svg"
 width="700.000000pt" height="700.000000pt" viewBox="0 0 700.000000 700.000000"
 preserveAspectRatio="xMidYMid meet">
<metadata>
Created by potrace 1.11, written by Peter Selinger 2001-2013
</metadata>
<g transform="translate(0.000000,700.000000) scale(0.100000,-0.100000)"
fill="#000000" stroke="none">
<path d="M2048 6555 c-2 -2 -23 -6 -48 -9 -355 -47 -683 -328 -803 -687 -56
-167 -70 -384 -33 -514 99 -346 346 -773 775 -1340 73 -96 84 -111 124 -158
10 -12 35 -43 55 -69 20 -27 39 -48 42 -47 11 1 336 425 404 529 17 25 38 54
47 65 17 19 177 268 262 405 62 101 190 356 225 450 60 157 75 227 75 340 1
225 -47 387 -171 578 -151 232 -392 393 -669 446 -59 11 -276 19 -285 11z
m228 -544 c30 -10 60 -23 66 -29 7 -7 17 -12 24 -12 6 0 35 -23 64 -52 190
-186 157 -500 -67 -641 -205 -129 -487 -30 -573 200 -118 313 172 631 486 534z"/>
<path d="M3170 6296 c0 -3 20 -37 45 -75 128 -198 197 -428 198 -666 1 -162
-19 -261 -90 -450 -47 -128 -196 -422 -264 -523 -16 -24 -29 -45 -29 -48 0
-12 -219 -336 -327 -484 -143 -196 -339 -446 -450 -574 l-86 -98 -31 34 c-17
19 -51 59 -76 88 -25 30 -61 72 -81 95 -115 131 -472 610 -534 717 -5 10 -53
86 -106 170 -53 84 -113 185 -134 223 -21 39 -46 82 -55 98 l-17 27 -27 -40
c-14 -22 -26 -42 -26 -45 0 -3 -41 -76 -91 -162 -50 -87 -105 -183 -122 -213
-16 -30 -84 -149 -150 -265 -66 -115 -131 -230 -145 -255 -14 -25 -52 -92 -84
-149 -76 -135 -98 -201 -99 -299 -1 -103 22 -167 129 -356 46 -83 96 -171 110
-196 14 -25 102 -180 195 -345 93 -165 189 -334 212 -375 49 -88 88 -157 124
-219 15 -26 35 -62 45 -83 11 -20 27 -46 36 -57 15 -21 16 -21 35 -3 11 10
166 148 345 306 179 159 359 319 400 356 41 37 93 82 115 101 22 19 42 37 45
40 5 5 57 52 290 258 41 36 119 107 175 156 55 50 132 117 169 150 38 33 78
69 91 80 53 48 106 95 185 165 47 41 87 77 90 80 3 3 41 37 85 75 44 39 84 75
90 81 5 5 48 44 95 85 47 40 90 79 96 84 16 14 140 124 204 180 30 27 60 54
66 59 6 6 44 40 85 76 40 36 118 105 172 153 54 48 113 101 130 116 58 51 497
441 767 681 146 129 267 237 270 240 3 3 43 39 90 80 47 41 90 80 96 85 106
95 159 141 170 148 8 4 14 13 14 20 0 6 -60 117 -132 247 -154 272 -208 338
-325 393 l-68 32 -957 3 c-527 1 -958 0 -958 -2z"/>
<path d="M5848 5064 c-29 -27 -55 -51 -58 -54 -3 -3 -41 -36 -85 -75 -44 -38
-87 -76 -96 -85 -9 -8 -47 -42 -84 -75 -38 -33 -79 -69 -91 -80 -12 -11 -35
-31 -50 -45 -164 -144 -480 -425 -484 -429 -3 -4 -36 -33 -75 -66 -38 -33 -76
-67 -85 -75 -25 -23 -152 -136 -180 -160 -14 -12 -41 -36 -60 -53 -19 -18 -89
-79 -155 -137 -65 -58 -126 -112 -135 -120 -27 -25 -88 -79 -220 -195 -262
-230 -244 -213 -228 -233 7 -9 42 -47 78 -83 68 -70 627 -641 865 -884 77 -79
277 -284 445 -455 168 -172 350 -358 405 -414 l100 -103 41 71 c23 39 189 332
369 651 180 319 355 630 390 690 35 61 72 126 82 145 11 19 32 58 48 85 200
353 217 390 220 505 3 105 -24 179 -136 377 -56 98 -175 306 -264 463 -90 157
-172 301 -182 320 -11 19 -81 142 -157 274 -75 131 -136 241 -136 245 0 3 -7
14 -15 25 -13 17 -17 15 -67 -30z"/>
<path d="M3215 2728 c-49 -44 -110 -99 -135 -122 -25 -23 -164 -147 -310 -276
-146 -129 -270 -239 -276 -245 -6 -5 -44 -39 -85 -75 -40 -36 -83 -74 -94 -85
-12 -11 -75 -67 -140 -125 -65 -58 -126 -112 -135 -120 -10 -8 -50 -44 -90
-80 -41 -36 -84 -74 -96 -85 -13 -11 -38 -33 -56 -50 -19 -16 -68 -60 -109
-97 -41 -36 -91 -81 -112 -100 l-39 -34 26 -47 c14 -26 37 -66 49 -89 194
-353 244 -432 300 -484 65 -60 138 -98 217 -112 32 -6 612 -10 1477 -10 1396
0 1425 1 1491 20 86 26 171 85 224 154 l41 55 -135 137 c-75 75 -178 180 -229
233 -52 53 -252 258 -445 455 -194 198 -393 402 -444 454 -320 330 -794 810
-799 810 -3 -1 -46 -37 -96 -82z"/>
</g>
</svg>
